<svg width="100" height="50" viewBox="0 0 100 50" fill="none" xmlns="http://www.w3.org/2000/svg">
<rect width="100" height="50" rx="10" fill="black"/>
<path d="M41.185 25.0004L40.0256 17.2788C39.9742 16.9335 40.0041 16.5786 40.1123 16.2514C40.2205 15.9242 40.4029 15.6368 40.6403 15.4196C40.8777 15.2024 41.1613 15.0633 41.4612 15.017C41.7611 14.9708 42.0663 15.0191 42.3445 15.1568L59.1434 23.4938C59.3977 23.6205 59.6144 23.8308 59.7666 24.0985C59.9189 24.3663 60 24.6798 60 25.0004C60 25.321 59.9189 25.6345 59.7666 25.9023C59.6144 26.1701 59.3977 26.3803 59.1434 26.507L42.3432 34.844C42.0649 34.9813 41.7597 35.0293 41.4599 34.9827C41.16 34.9362 40.8765 34.797 40.6392 34.5797C40.4019 34.3624 40.2195 34.075 40.1113 33.7479C40.0031 33.4207 39.9731 33.0658 40.0243 32.7206L41.185 25.0004ZM41.9409 17.3252L42.9286 23.9118H49.033C49.2823 23.9118 49.5214 24.0265 49.6977 24.2307C49.874 24.4348 49.9731 24.7117 49.9731 25.0004C49.9731 25.2891 49.874 25.566 49.6977 25.7701C49.5214 25.9743 49.2823 26.089 49.033 26.089H42.9286L41.9409 32.6756L57.4048 25.0004L41.9409 17.3252Z" fill="white"/>
</svg>
