<svg width="104" height="58" viewBox="0 0 104 58" fill="none" xmlns="http://www.w3.org/2000/svg">
<path d="M19.9126 1.11137C15.625 0.417527 5.91023 3.13507 1.58881 4.58057C0.961117 21.3725 0.299625 55.2598 2.6752 56.4741C5.64467 57.9918 17.4501 57.5582 19.9126 54.9563C21.8826 52.8748 20.7334 34.6229 19.9126 25.7572C24.6203 23.5166 33.7895 17.3443 32.8045 10.5794C31.5732 2.12321 25.2721 1.97867 19.9126 1.11137Z" fill="#212532" stroke="black"/>
<path d="M24.6539 12.4329C23.17 12.3911 23.2734 10.1836 23.5105 9.08501C24.5251 7.60716 25.2416 8.81541 25.4731 9.60427C25.8183 10.5646 26.1378 12.4748 24.6539 12.4329Z" fill="#D9D9D9"/>
<path d="M19.2737 13.1334C17.7898 13.0916 17.8932 10.884 18.1303 9.78545C19.1449 8.3076 19.8614 9.51585 20.0929 10.3047C20.4381 11.265 20.7576 13.1752 19.2737 13.1334Z" fill="#D9D9D9"/>
<path d="M30.5925 35.5229C31.4178 35.5254 32.1447 35.9403 32.1418 36.8626L32.0959 51.7417C32.093 52.664 31.3636 53.0744 30.5383 53.0719C29.7131 53.0693 28.9862 52.6545 28.989 51.7321L29.0349 36.8531C29.0378 35.9307 29.7672 35.5203 30.5925 35.5229Z" fill="#212532"/>
<path d="M42.8271 35.4391C45.0602 35.446 46.7091 35.985 47.8232 36.7652C48.5498 37.2772 48.5958 38.1026 48.1326 38.7565C47.7181 39.3621 46.9649 39.6025 46.2866 39.1877C45.269 38.5778 44.2746 38.3077 42.7455 38.303C40.0755 38.2948 38.5414 39.8921 38.5285 44.067L38.5269 44.5767C38.5144 48.6302 39.8927 50.3335 42.7326 50.3423C44.3346 50.3472 45.5008 49.9867 46.6196 49.2377C47.2763 48.8028 48.0528 48.9023 48.5361 49.5834C49.0195 50.2645 48.9439 51.1624 48.1654 51.7182C46.7788 52.7091 44.8839 53.2373 42.6509 53.2305C38.0876 53.2164 35.3768 50.708 35.395 44.8098L35.3981 43.8146C35.4163 37.9164 38.1426 35.4247 42.8271 35.4391Z" fill="#212532"/>
<path d="M51.2781 35.7321L62.7589 35.7674C63.5114 35.7697 63.8493 36.3776 63.8472 37.0815C63.845 37.7854 63.5033 38.3911 62.7508 38.3888L58.576 38.376L58.5345 51.8229C58.5316 52.7453 57.8022 53.1557 56.9769 53.1531C56.1517 53.1506 55.4248 52.7357 55.4276 51.8134L55.4691 38.3664L51.27 38.3535C50.5175 38.3512 50.1796 37.7433 50.1818 37.0394C50.1839 36.3355 50.5256 35.7298 51.2781 35.7321Z" fill="#212532"/>
<path d="M67.4753 35.6362C68.3005 35.6388 69.0274 36.0537 69.0246 36.976L68.9787 51.855C68.9758 52.7774 68.2464 53.1878 67.4211 53.1852C66.5958 53.1827 65.8689 52.7678 65.8718 51.8455L65.9177 36.9665C65.9206 36.0441 66.65 35.6337 67.4753 35.6362Z" fill="#212532"/>
<path d="M79.7342 35.5526C84.443 35.567 87.1538 38.0755 87.1356 43.9737L87.1326 44.9688C87.1144 50.8671 84.3881 53.3588 79.6793 53.3443C74.9704 53.3298 72.2596 50.8214 72.2778 44.9232L72.2809 43.928C72.2991 38.0298 75.0253 35.5381 79.7342 35.5526ZM79.7254 38.3924C76.8855 38.3837 75.4248 39.787 75.4113 44.1804L75.4097 44.6901C75.3962 49.0834 76.8482 50.4957 79.688 50.5044C82.5279 50.5131 83.9886 49.1098 84.0022 44.7165L84.0037 44.2068C84.0173 39.8135 82.5653 38.4012 79.7254 38.3924Z" fill="#212532"/>
<path d="M102.568 35.7441C103.296 35.7464 103.998 36.1369 103.996 37.0107L103.952 51.1858C103.947 52.715 103.436 53.1989 101.883 53.1941C100.693 53.1904 100.233 52.9463 99.0018 50.7337L94.4396 42.5155C93.9568 41.6402 93.571 40.8137 93.2831 39.7206L93.2452 52.0024C93.2425 52.8763 92.5374 53.2624 91.8092 53.2602C91.0811 53.258 90.3784 52.8674 90.3811 51.9936L90.4248 37.8185C90.4295 36.2894 90.9408 35.8055 92.4942 35.8102C93.6835 35.8139 94.1439 36.0823 95.375 38.2706L99.9372 46.4888C100.42 47.3641 100.806 48.1906 101.094 49.2838L101.132 37.0019C101.134 36.1281 101.839 35.7419 102.568 35.7441Z" fill="#212532"/>
</svg>
