<svg width="48" height="72" viewBox="0 0 48 72" fill="none" xmlns="http://www.w3.org/2000/svg">
<path d="M32.8686 1.7018C22.9936 -0.471954 9.06086 2.86631 2.82425 5.42823C1.99616 26.7776 -0.172422 66.697 1.81501 68.9329C4.2993 71.7277 23.5525 71.6501 27.6672 68.9329C30.9588 66.7591 29.0387 49.0068 27.6672 38.8109C45.4454 39.5096 47.3086 23.9828 47.3086 19.2471C47.3086 13.7351 45.2125 4.41899 32.8686 1.7018Z" fill="#212532" stroke="black"/>
<path d="M36.3864 16.1336C34.7092 16.0862 34.826 13.5859 35.0941 12.3417C36.2408 10.6679 37.0506 12.0364 37.3122 12.9298C37.7024 14.0175 38.0635 16.181 36.3864 16.1336Z" fill="white"/>
<path d="M31.2371 16.9097C29.5599 16.8624 29.6767 14.3621 29.9448 13.1178C31.0915 11.444 31.9013 12.8125 32.1629 13.706C32.5531 14.7936 32.9142 16.9571 31.2371 16.9097Z" fill="white"/>
</svg>
