<svg width="48" height="48" viewBox="0 0 48 48" fill="none" xmlns="http://www.w3.org/2000/svg">
<path d="M32.8415 3.96115C39.62 3.96115 44.1738 8.71738 44.1738 15.7946V32.1277C44.1738 39.2049 39.62 43.9612 32.8395 43.9612H15.5062C8.72762 43.9612 4.17383 39.2049 4.17383 32.1277V15.7946C4.17383 8.71738 8.72762 3.96115 15.5062 3.96115H32.8415ZM35.047 25.0613C32.9031 23.7238 31.2479 25.602 30.8015 26.2026C30.3711 26.7826 30.001 27.4225 29.6109 28.0623C28.6576 29.6412 27.5655 31.4617 25.675 32.5205C22.9278 34.0416 20.8422 32.6402 19.3419 31.6206C18.7788 31.2408 18.2318 30.8817 17.6867 30.6423C16.3433 30.0623 15.1346 30.7228 13.3406 33.0014C12.3994 34.1923 11.4662 35.3729 10.521 36.5494C9.95586 37.2532 10.0906 38.3389 10.8528 38.8094C12.0696 39.5587 13.5538 39.9612 15.2311 39.9612H32.0866C33.0379 39.9612 33.9912 39.8311 34.9002 39.5339C36.9476 38.8652 38.5726 37.3337 39.4213 35.311C40.1372 33.6103 40.4852 31.5463 39.8155 29.8291C39.5922 29.2594 39.2584 28.729 38.7898 28.2625C37.561 27.0427 36.4126 25.9034 35.047 25.0613ZM17.1715 11.9612C14.4143 11.9612 12.1738 14.2046 12.1738 16.9612C12.1738 19.7177 14.4143 21.9612 17.1715 21.9612C19.9268 21.9612 22.1693 19.7177 22.1693 16.9612C22.1693 14.2046 19.9268 11.9612 17.1715 11.9612Z" fill="url(#paint0_linear_137_272)"/>
<defs>
<linearGradient id="paint0_linear_137_272" x1="24.1738" y1="3.96115" x2="24.1738" y2="43.9612" gradientUnits="userSpaceOnUse">
<stop stop-color="#212532"/>
<stop offset="1" stop-color="#212532" stop-opacity="0.5"/>
</linearGradient>
</defs>
</svg>
